<svg version="1.1" xmlns="http://www.w3.org/2000/svg" viewBox="0 0 812.0703125 591.22265625">
  <!-- svg-source:excalidraw -->
  <defs>
    <style>
      @font-face {
        font-family: "Virgil";
        src: url("https://excalidraw.com/FG_Virgil.woff2");
      }
      @font-face {
        font-family: "Cascadia";
        src: url("https://excalidraw.com/Cascadia.woff2");
      }
    </style>
  </defs>
  <rect x="0" y="0" width="812.0703125" height="591.22265625" fill="#ffffff"></rect><g transform="translate(21.484375000000114 10) rotate(0 390.29296874999994 285.611328125)"><path d="M0.40105646997690203 -0.6031377449631692 C240.20642433231475 -3.2266849642971653, 482.4774065135003 -0.7619933730343478, 782.0541229620575 0.3804389819502831 M0.5944763593375683 -0.031658416241407396 C203.26156710366703 0.04514761479833351, 407.36649277841644 0.4038460543964171, 780.594853132218 -0.033517199009656905 M781.2450985327362 0.7622112140059472 C782.5150154023594 150.09083485470586, 782.4243022351687 298.1993275749956, 781.7623633280396 571.2738015517592 M781.3423981837927 -0.08633263632655144 C784.6105165202803 115.97093565082797, 783.7980258901305 230.9248538708438, 780.5871772699057 571.8675893731415 M781.810797394812 570.0346387252212 C511.02760480200146 574.2783540939706, 239.89723355928862 572.9956244205849, 0.5960202589631081 570.5165766581893 M781.1490594796835 571.2837375588715 C544.5036883982458 566.3502403626192, 308.6830174816029 566.634773457979, -0.12965462878346443 571.8640702433884 M0.414022196829319 572.4881193980575 C-2.507274703941802 392.34483527909066, -2.0884084033589163 215.69890070846378, -0.6305996045470238 -1.2735110893845558 M0.1311350516974926 571.6427367396652 C-0.7764804618451451 344.39333067496153, 0.664662025680795 118.41386555874415, -0.4928740091621876 0.47870373204350475" style="stroke: rgb(0, 0, 0); stroke-width: 1; fill: none;"></path></g><g><g transform="translate(25.41796875 45.1171875) rotate(0 370.4212601689995 -0.36858535334467035)"><path d="M2.465225296840072 -1.1096962329000233 C125.85305641653639 -1.6664517478396492, 615.473993958657 -0.5346268769353629, 738.8570479329676 -1.1556339737027885 M-4.248987321406603 2.0930083818733696 C119.25949383939306 2.154386967370908, 621.4372914827367 -1.8265086933473746, 745.0915076594055 -2.830179088562727" style="stroke: rgb(0, 0, 0); stroke-width: 1; fill: none;"></path></g></g><g transform="translate(80.19140625 12.1328125) rotate(0 81.5 12.5)"><text x="0" y="18" font-family="Virgil" font-size="20px" fill="#000000" text-anchor="start">https://eventflow</text></g><g transform="translate(197.0390625 187.34765625) rotate(0 221.88671875 136.333984375)"><path d="M-2.5702207296953246 0.7287819769758498 L443.66493917624405 2.7871417132936473 L446.27961579765025 271.02783532497585 L-2.231093664602937 275.0660698891181" style="stroke: none; stroke-width: 0; fill: rgb(130, 201, 30);"></path><path d="M-1.5510028058800682 0.846364413224178 C115.84828482245982 -3.2594342173870707, 230.39392866789257 -4.207720125463853, 443.52690621221694 -1.3135144021266976 M0.6244950321276395 0.6074431582899551 C135.50077915306494 -3.0552089207859896, 268.71116049793636 -2.5160578067280372, 443.3075294870941 0.9592191438481745 M443.38996266268737 1.0174016939944588 C440.52285676334304 78.3972839786678, 442.8733539706542 153.70984361158483, 442.90327537948986 270.9505785928497 M444.44611392630713 -1.0933554606259088 C440.95493259982385 88.21994421313684, 440.5949805324034 176.06366260127876, 443.3468149706801 271.9930808878339 M442.38772341971435 270.79384735733447 C302.03819576056384 268.9309651041342, 160.48025121832382 269.10738886341665, -0.07506964699744623 274.36451658627306 M443.6676188645466 273.0120076922694 C331.58587265786406 274.1722425041259, 218.87548433831094 274.1806453154893, -0.4085422603864929 272.351966046099 M-0.4553655246096245 274.0101922188171 C5.677939569973626 185.95444150158656, 5.367756589250998 101.35577217691389, -1.05648101733083 1.7702363609936909 M1.4238337324495332 273.6158040776724 C1.5322456680814833 173.9393355017498, 2.274026846425525 77.78156407949038, 0.8155266920030089 0.04250515224236917" style="stroke: rgb(230, 119, 0); stroke-width: 1; fill: none;"></path></g><g transform="translate(224.31640625 214.8671875) rotate(0 26 12.5)"><text x="0" y="18" font-family="Virgil" font-size="20px" fill="#e67700" text-anchor="start">outer</text></g><g transform="translate(258.9140625 269.73046875) rotate(0 151.455078125 77.65625)"><path d="M-2.291140351444483 -3.6359045766294003 L306.1603377722204 1.5122590996325016 L301.16915461048484 155.42235896363854 L-0.9979662038385868 158.48587450757623" style="stroke: none; stroke-width: 0; fill: rgb(190, 75, 219);"></path><path d="M1.7124632816500507 -1.4364667829032023 C96.58309606711718 1.204054611156744, 187.9015699277979 3.761879583554717, 302.76334906263526 -0.23281728274247948 M0.20467169842676833 -0.8980658352152774 C62.21652952177929 4.036757400171179, 124.68689756302558 2.3033090617078993, 303.8797691114649 0.24021117711772125 M299.503289911896 3.1549933813512325 C299.220570707001 57.07674858087558, 303.79754068819454 124.76006612781204, 299.1256793476641 154.82794734463096 M302.1314105819911 1.1678595412522554 C303.1950905146485 56.618843867705436, 301.94317035101705 108.15648476459319, 301.153543157503 153.84191207773983 M305.1556188857458 153.66867758525393 C192.02471383882556 152.70763868115242, 85.74988891745954 155.59899080547697, 1.1740849699816276 156.67533442064996 M301.9042604747422 154.8375742826879 C231.13416388826812 152.44715659713694, 159.72591103350365 150.77133760234756, -0.053933650876992686 153.88089029793596 M-0.07482054457068443 151.64999302849174 C0.3390816598606763 103.0154715932731, 4.070615544862813 45.49090117734157, 3.0346981026232243 -0.08788827434182167 M0.7017901968210936 155.4270907510072 C-3.6715766003762837 117.20876568063977, -2.93870596200577 80.54548096976941, 0.2290764283388853 1.7482723463326693" style="stroke: rgb(54, 79, 199); stroke-width: 1; fill: none;"></path></g><g transform="translate(291.30078125 285.44140625) rotate(0 21.5 12.5)"><text x="0" y="18" font-family="Virgil" font-size="20px" fill="#0b7285" text-anchor="start">inner</text></g><g transform="translate(347.3515625 324.06640625) rotate(0 79.560546875 28.982421875)"><path d="M3.2862141989171505 -3.1544040702283382 L156.88221975788474 -0.6864733956754208 L158.36381110176444 55.17413077130914 L1.4938056133687496 61.455606672912836" style="stroke: none; stroke-width: 0; fill: rgb(21, 170, 191);"></path><path d="M0.9629878737032413 -3.612348470836878 C50.688425691429075 0.6369197200441699, 107.78541883752405 -0.5129815508222242, 155.29934367910028 0.30232759937644005 M0.2962206434458494 -1.1333202254027128 C55.821548891128266 0.46451518886206067, 107.00567344923549 0.8719348108064882, 160.03503946773708 1.0737408865243196 M156.17998084798455 -2.4608931876719 C160.2216854806523 13.1532502170714, 161.72572226482436 27.68923428953931, 160.52497694268823 56.81043800339103 M160.9571857880801 1.9987701643258333 C157.5228834622971 21.60397555885102, 157.80068551241078 46.109253051154525, 157.69153187982738 59.583808647468686 M161.49847910180688 56.73316081985831 C104.42786228775185 59.65139045480937, 47.10306838019095 57.317506334821886, -2.685360100120306 56.94745084270835 M158.4561617206782 57.03085635788739 C105.20282682614379 57.91378066354482, 52.12232632797168 57.348189268643544, -1.8352661896497011 59.83060316927731 M1.5362804867327213 55.76021882519126 C-2.46686616212588 43.498246728506274, 2.767173978979772 36.0455664714209, -3.655275847762823 -3.8204473592340946 M0.5457729529589415 58.9710560310632 C-0.06978965618771338 41.265551623993446, 2.684380344365418 23.59647185376452, -1.3649958539754152 -1.7148672472685575" style="stroke: rgb(11, 114, 133); stroke-width: 1; fill: none;"></path></g><g transform="translate(396.912109375 340.548828125) rotate(0 30 12.5)"><text x="0" y="18" font-family="Virgil" font-size="20px" fill="#0b7285" text-anchor="start">center</text></g><g transform="translate(355.55859375 82.08203125) rotate(0 30.5 37.5)"><text x="0" y="18" font-family="Virgil" font-size="20px" fill="#5f3dc4" text-anchor="start">window</text><text x="0" y="43" font-family="Virgil" font-size="20px" fill="#5f3dc4" text-anchor="start">body</text><text x="0" y="68" font-family="Virgil" font-size="20px" fill="#5f3dc4" text-anchor="start">html</text></g><g><g transform="translate(689.83203125 462.171875) rotate(0 3.037973434105538 -185.80179110702127)"><path d="M1.941494596377015 1.8856617148965595 C2.3555370652427277 -60.983474709962806, 3.396551033233603 -312.65082998909054, 4.134452271834016 -374.9332925502211 M3.1461666364967824 3.3297103361785414 C3.0511830190320812 -58.177639344086245, 2.6329339444140594 -309.05132439727583, 2.2854501743614675 -372.27353964760897" style="stroke: rgb(95, 61, 196); stroke-width: 2; fill: none;"></path></g><g transform="translate(689.83203125 462.171875) rotate(0 3.037973434105538 -185.80179110702127)"><path d="M15.332780401753013 -343.578699233145 C5.004476618634044 -350.3495199853994, 5.751339382048276 -361.54227622695447, -0.704773497879505 -369.36042239159343 M11.390575876058762 -345.73335902033796 C9.884856371581755 -354.0780547155605, 6.082025629617741 -365.61368479542426, 0.944840845540166 -372.82645118065176" style="stroke: rgb(95, 61, 196); stroke-width: 2; fill: none;"></path></g><g transform="translate(689.83203125 462.171875) rotate(0 3.037973434105538 -185.80179110702127)"><path d="M-5.188316580259923 -343.5110158477425 C-8.151970632792187 -350.5907134274407, -0.0393551287663092 -361.8077636471373, -0.704773497879505 -369.36042239159343 M-9.130521105954173 -345.66567563493544 C-2.8977531911958554 -354.0585213772559, 1.037442122803518 -365.6196732798692, 0.944840845540166 -372.82645118065176" style="stroke: rgb(95, 61, 196); stroke-width: 2; fill: none;"></path></g></g><g><g transform="translate(131.40234375 72.25390625) rotate(0 2.0666966313496005 202.59356062766167)"><path d="M-0.1996668878942729 -0.5203455444425344 C0.5407214776923258 66.726605936264, 3.5157156960417826 337.71314488289255, 4.029130464419723 405.11758550442755 M3.532005629986525 0.3237650795280933 C3.636600224624078 67.51626574551065, 4.3749229228993265 337.75852585668366, 4.33306015059352 405.7074667997658" style="stroke: rgb(217, 72, 15); stroke-width: 2; fill: none;"></path></g><g transform="translate(131.40234375 72.25390625) rotate(0 2.0666966313496005 202.59356062766167)"><path d="M-6.70713648724162 375.2445114401792 C-0.9502134145808312 381.6562040479051, 0.2564779610669312 397.05049912610355, 6.696451635658741 408.9778423830867 M-7.050858512174123 379.4386459232931 C-2.153752139361017 387.4197496478429, -0.8876016192658813 393.63203529090856, 2.9700219552963976 406.4907416123897" style="stroke: rgb(217, 72, 15); stroke-width: 2; fill: none;"></path></g><g transform="translate(131.40234375 72.25390625) rotate(0 2.0666966313496005 202.59356062766167)"><path d="M13.81405514643243 375.2181235667311 C13.717763024879813 381.6080759666329, 9.07093086841967 397.009897997503, 6.696451635658741 408.9778423830867 M13.470333121499927 379.412258049845 C12.057126352223236 387.5737147808551, 7.013122038667827 393.79411455150944, 2.9700219552963976 406.4907416123897" style="stroke: rgb(217, 72, 15); stroke-width: 2; fill: none;"></path></g></g><g transform="translate(40.19140625 174.96484375) rotate(0 37.5 12.5)"><text x="0" y="18" font-family="Virgil" font-size="20px" fill="#d9480f" text-anchor="start">capture</text></g><g transform="translate(709.234375 175.08203125) rotate(0 28.5 12.5)"><text x="0" y="18" font-family="Virgil" font-size="20px" fill="#364fc7" text-anchor="start">bubble</text></g><g transform="translate(10 199.51953125) rotate(0 47.5 12.5)"><text x="0" y="18" font-family="Virgil" font-size="20px" fill="#d9480f" text-anchor="start">    phase</text></g><g transform="translate(707 201.51953125) rotate(0 27.5 12.5)"><text x="0" y="18" font-family="Virgil" font-size="20px" fill="#364fc7" text-anchor="start">phase</text></g><g transform="translate(63.19921875 245.734375) rotate(0 10 56)"><text x="0" y="21" font-family="Virgil" font-size="20px" fill="#d9480f" text-anchor="start">捕</text><text x="0" y="49" font-family="Virgil" font-size="20px" fill="#d9480f" text-anchor="start">获</text><text x="0" y="77" font-family="Virgil" font-size="20px" fill="#d9480f" text-anchor="start">阶</text><text x="0" y="105" font-family="Virgil" font-size="20px" fill="#d9480f" text-anchor="start">段</text></g><g transform="translate(727.1953125 236.91796875) rotate(0 10 56)"><text x="0" y="21" font-family="Virgil" font-size="20px" fill="#364fc7" text-anchor="start">冒</text><text x="0" y="49" font-family="Virgil" font-size="20px" fill="#364fc7" text-anchor="start">泡</text><text x="0" y="77" font-family="Virgil" font-size="20px" fill="#364fc7" text-anchor="start">阶</text><text x="0" y="105" font-family="Virgil" font-size="20px" fill="#364fc7" text-anchor="start">段</text></g><g><g transform="translate(414.33984375 361.49609375) rotate(0 3.6073270874509262 66.10009263716637)"><path d="M2.2257114652544256 1.3181392963975664 C3.0061643802871303 23.21106125675142, 4.91759066618979 109.07034973067543, 5.487132656946779 130.8820459779352 M3.3688407535851006 3.8720163063704973 C3.699995492647092 25.07935265108943, 1.3913247159620126 106.41999961897731, 1.7642810602486132 127.99262176081538" style="stroke: rgb(11, 114, 133); stroke-width: 2; fill: none;"></path></g><g transform="translate(414.33984375 361.49609375) rotate(0 3.6073270874509262 66.10009263716637)"><path d="M-6.399512165852503 100.7277813789511 C-5.785683042135469 110.0830765984855, -0.6168900155936949 117.94388687976218, 2.457432627379894 131.11191875487566 M-7.902280077033357 100.6179407679552 C-3.5892864391717296 112.2473249162459, -2.1057030594864203 121.8789788532427, 0.6568942756205796 129.32514098100364" style="stroke: rgb(11, 114, 133); stroke-width: 2; fill: none;"></path></g><g transform="translate(414.33984375 361.49609375) rotate(0 3.6073270874509262 66.10009263716637)"><path d="M14.121108130469526 100.88316812232347 C7.989739688147605 110.51361876600512, 6.412807404453821 118.32334890094576, 2.457432627379894 131.11191875487566 M12.618340219288672 100.77332751132758 C8.938057592035582 112.0204615706874, 2.4261915401345533 121.59157216976203, 0.6568942756205796 129.32514098100364" style="stroke: rgb(11, 114, 133); stroke-width: 2; fill: none;"></path></g></g><g transform="translate(391.14453125 494.3359375) rotate(0 40 26.5)"><text x="0" y="19.5" font-family="Virgil" font-size="20px" fill="#0b7285" text-anchor="start">click</text><text x="0" y="46" font-family="Virgil" font-size="20px" fill="#0b7285" text-anchor="start">目标阶段</text></g><g transform="translate(287.58984375 11.4375) rotate(0 30 14)"><text x="0" y="21" font-family="Virgil" font-size="20px" fill="#000000" text-anchor="start">浏览器</text></g></svg>